# 3ds Max Wavefront OBJ Exporter v0.97b - (c)2007 guruware
# File Created: 24.08.2018 10:00:59

mtllib Army Helmet.mtl

#
# object soldier_Military_Male_Lod_1
#

v  -4.3183 63.1680 0.9988
v  -4.5405 63.8192 0.7428
v  -3.4450 63.4888 -2.8537
v  -3.2759 62.8486 -2.7546
v  -2.9637 67.5078 -2.6521
v  -1.6421 67.7270 -3.6988
v  -1.6874 63.7028 -4.2784
v  0.0008 66.5382 5.9589
v  0.0008 67.0605 5.6348
v  -1.8384 66.9747 5.2894
v  -1.7809 66.4543 5.5750
v  -3.6662 65.6847 3.3001
v  -3.7704 66.1468 2.6856
v  -4.4353 64.0165 1.3989
v  -4.3573 63.4987 1.6936
v  -1.3840 63.0395 -4.2476
v  0.0009 63.7995 -4.4660
v  0.0008 63.1723 -4.4170
v  0.0008 67.8584 -3.9640
v  -3.5658 67.5646 1.4435
v  -3.1920 66.0035 3.9328
v  -3.2622 66.5406 3.6621
v  0.0008 68.2261 5.0229
v  -1.7689 68.1374 4.5809
v  -3.1676 67.7748 3.3860
v  -2.9878 68.5866 2.9051
v  -1.7786 69.2207 3.8722
v  -1.5841 70.1144 1.5791
v  -2.8418 69.2222 1.2990
v  0.0008 69.3026 4.2251
v  0.0008 70.2920 1.5711
v  0.0008 69.8567 -1.7612
v  -1.6485 69.7178 -1.7202
v  -1.6400 68.9425 -2.8026
v  -2.8007 68.4615 -2.0846
v  -2.5984 69.0757 -1.4870
v  0.0008 69.0932 -2.9888
v  -3.6526 66.6963 2.4999
v  -3.3708 68.3520 1.3527
v  -3.4668 67.7039 2.2784
v  -1.5277 66.1524 5.1129
v  0.0008 66.2304 5.4493
v  0.0008 63.2331 -3.8599
v  -1.0979 63.1260 -3.5993
v  -2.8558 62.9426 -2.2813
v  -3.8414 63.2713 0.9907
v  -2.7838 65.7291 3.5772
v  -3.9647 63.4577 1.6403
v  -3.2492 65.4111 3.0610
v  0.0008 64.7841 -3.3608
v  -2.9970 64.7044 -0.9436
v  -2.7886 66.8279 2.4416
v  0.0008 67.3848 4.6545
v  -3.5070 65.0210 1.4081
v  0.0008 67.2995 -2.2799
v  -2.2344 67.1703 -0.6355
v  -2.6547 63.1476 2.5773
v  -3.0569 62.9779 1.5480
v  -2.6017 62.1668 1.5391
v  -2.2349 61.3923 2.5679
v  -2.2712 62.1996 3.0896
v  -2.8834 65.3625 2.4722
v  -2.9693 65.3822 1.8345
v  -1.3524 60.5095 4.1314
v  -1.2813 61.3093 4.6614
v  -0.7298 60.6812 5.1903
v  0.0008 60.5649 5.3850
v  0.0008 61.1385 5.4505
v  -0.7423 61.1814 5.2507
v  -2.7487 63.0055 1.5248
v  -2.8067 65.3795 1.8185
v  -2.6901 65.3600 2.4493
v  -2.5077 63.1744 2.5369
v  -2.1218 62.2180 3.0282
v  -1.2215 61.3330 4.6538
v  -0.5783 61.2607 5.1811
v  0.0008 61.2552 5.2721
v  -0.6522 60.1025 4.5107
v  0.0008 60.0137 4.5720
v  -2.9429 61.3384 2.2051
v  -2.9537 61.4106 1.7063
v  -2.9036 65.5822 1.4885
v  -2.8292 65.6250 2.3789
v  -2.9742 65.6277 2.3789
v  -3.0202 61.3384 2.2051
v  -3.0298 61.4106 1.7063
v  -3.0065 65.5773 1.4891
v  0.0008 68.6885 0.8917
v  -2.0703 67.6102 -3.7992
v  0.0008 67.5913 -4.1616
v  0.0008 66.5677 -4.2935
v  -2.0578 66.5745 -3.9585
v  -3.3638 67.6933 -2.6448
v  -3.5986 66.6115 -2.7478
v  -4.0369 66.7851 2.3479
v  -3.8247 68.0059 2.1928
v  0.0008 67.5849 -3.9470
v  -2.0110 67.5908 -3.6038
v  -2.0080 66.5588 -3.7621
v  0.0008 66.5528 -4.0821
v  -3.2577 67.6655 -2.5667
v  -3.4863 66.5873 -2.6644
v  -3.6788 67.9753 2.1669
v  -3.8912 66.7593 2.3162
v  -2.2541 61.7441 2.1142
v  -2.2704 62.1535 2.8661
v  -2.5118 62.8150 1.5787
v  -3.2809 64.4331 0.0236
v  -2.6959 64.1766 -0.8596
v  -2.6642 63.3937 0.2283
v  -3.3177 65.2087 0.5039
v  4.3183 63.1680 0.9988
v  3.2759 62.8486 -2.7546
v  3.4450 63.4888 -2.8537
v  4.5405 63.8192 0.7428
v  1.6874 63.7028 -4.2784
v  1.6421 67.7270 -3.6988
v  2.9637 67.5078 -2.6521
v  1.7809 66.4543 5.5750
v  1.8384 66.9747 5.2894
v  3.6662 65.6847 3.3001
v  4.3573 63.4987 1.6936
v  4.4353 64.0165 1.3989
v  3.7704 66.1468 2.6856
v  1.3840 63.0395 -4.2476
v  3.5658 67.5646 1.4435
v  3.2622 66.5406 3.6621
v  3.1920 66.0035 3.9328
v  1.7689 68.1374 4.5809
v  3.1676 67.7748 3.3860
v  2.9878 68.5866 2.9051
v  2.8418 69.2222 1.2990
v  1.5841 70.1144 1.5791
v  1.7786 69.2207 3.8722
v  1.6485 69.7178 -1.7202
v  1.6400 68.9425 -2.8026
v  2.5984 69.0757 -1.4870
v  2.8007 68.4615 -2.0846
v  3.6526 66.6963 2.4999
v  3.3708 68.3520 1.3527
v  3.4668 67.7039 2.2784
v  1.5277 66.1524 5.1129
v  1.0979 63.1260 -3.5993
v  2.8558 62.9426 -2.2813
v  3.8414 63.2713 0.9907
v  2.7838 65.7291 3.5772
v  3.9647 63.4577 1.6403
v  3.2492 65.4111 3.0610
v  2.9970 64.7044 -0.9436
v  2.7886 66.8279 2.4416
v  3.5070 65.0210 1.4081
v  2.2344 67.1703 -0.6355
v  2.6547 63.1476 2.5773
v  2.2349 61.3923 2.5679
v  2.6017 62.1668 1.5391
v  3.0569 62.9779 1.5480
v  2.2712 62.1996 3.0896
v  2.9693 65.3822 1.8345
v  2.8834 65.3625 2.4722
v  1.3524 60.5095 4.1314
v  1.2813 61.3093 4.6614
v  0.7298 60.6812 5.1903
v  0.7422 61.1814 5.2507
v  2.7487 63.0055 1.5248
v  2.5077 63.1744 2.5369
v  2.6901 65.3600 2.4493
v  2.8067 65.3795 1.8185
v  2.1218 62.2180 3.0282
v  1.2215 61.3330 4.6538
v  0.5783 61.2607 5.1811
v  0.6522 60.1025 4.5107
v  2.9429 61.3384 2.2051
v  2.8292 65.6250 2.3789
v  2.9035 65.5822 1.4885
v  2.9537 61.4106 1.7063
v  3.0202 61.3384 2.2051
v  2.9742 65.6277 2.3789
v  3.0298 61.4106 1.7063
v  3.0065 65.5773 1.4891
v  2.0703 67.6102 -3.7992
v  2.0578 66.5745 -3.9585
v  3.3638 67.6933 -2.6448
v  3.5986 66.6115 -2.7478
v  3.8247 68.0059 2.1928
v  4.0369 66.7851 2.3479
v  2.0110 67.5908 -3.6038
v  2.0080 66.5588 -3.7621
v  3.2577 67.6655 -2.5667
v  3.4863 66.5873 -2.6644
v  3.6788 67.9753 2.1669
v  3.8912 66.7593 2.3162
v  2.2540 61.7441 2.1142
v  2.5118 62.8150 1.5787
v  2.2704 62.1535 2.8661
v  3.2808 64.4331 0.0236
v  2.6642 63.3937 0.2283
v  2.6959 64.1766 -0.8596
v  3.3177 65.2087 0.5039
# 198 vertices

vn -0.4933 -0.8549 0.1608
vn -0.9944 -0.0468 -0.0944
vn -0.8278 -0.0931 -0.5532
vn -0.4956 -0.8017 -0.3343
vn -0.8279 0.2598 -0.4971
vn -0.3984 0.3438 -0.8504
vn -0.4066 -0.0425 -0.9126
vn 0.0001 -0.1970 0.9804
vn 0.0001 0.4974 0.8675
vn -0.5066 0.4178 0.7542
vn -0.4321 -0.2597 0.8636
vn -0.7276 -0.2220 0.6490
vn -0.9416 0.2378 0.2386
vn -0.9735 0.1074 0.2020
vn -0.6366 -0.5552 0.5352
vn -0.1535 -0.7500 -0.6434
vn 0.0001 0.0260 -0.9997
vn 0.0000 -0.7234 -0.6904
vn 0.0001 0.3873 -0.9220
vn -0.9706 0.2399 -0.0180
vn -0.6330 -0.3989 0.6635
vn -0.8547 0.1800 0.4869
vn 0.0001 0.5281 0.8492
vn -0.4489 0.4859 0.7499
vn -0.8234 0.2984 0.4827
vn -0.7807 0.5412 0.3125
vn -0.4187 0.7127 0.5628
vn -0.3423 0.9325 0.1153
vn -0.7232 0.6894 0.0407
vn 0.0001 0.7855 0.6188
vn 0.0001 0.9939 0.1106
vn 0.0000 0.9419 -0.3358
vn -0.3368 0.8784 -0.3390
vn -0.3694 0.6585 -0.6556
vn -0.7960 0.4661 -0.3862
vn -0.7339 0.6368 -0.2365
vn 0.0001 0.7440 -0.6682
vn -0.9808 0.1862 -0.0585
vn -0.9284 0.3714 0.0096
vn -0.4023 0.9155 -0.0088
vn 0.1271 -0.9834 0.1296
vn -0.0000 -0.9929 -0.1191
vn -0.0002 -0.8034 0.5955
vn 0.3249 -0.8355 0.4432
vn 0.4057 -0.8477 0.3418
vn 0.6362 -0.7145 0.2911
vn 0.4420 -0.8969 0.0148
vn 0.3576 -0.7893 0.4991
vn 0.2914 -0.8263 0.4820
vn -0.0002 -0.4430 0.8965
vn 0.8514 -0.2672 0.4515
vn 0.7540 -0.6175 -0.2239
vn -0.0001 -0.8281 -0.5606
vn 0.9459 -0.3129 0.0862
vn -0.0001 -0.6465 0.7629
vn 0.6949 -0.5988 0.3982
vn -0.5593 0.0655 0.8264
vn -0.9693 -0.2022 -0.1401
vn 0.2076 -0.7445 -0.6345
vn -0.1095 -0.7952 -0.5964
vn -0.6337 0.2836 0.7197
vn -0.6608 -0.0326 0.7499
vn -0.7984 0.0998 -0.5938
vn -0.4930 -0.5011 -0.7112
vn -0.6907 0.2759 0.6685
vn -0.5563 -0.3869 0.7354
vn 0.0003 -0.5175 0.8557
vn 0.0002 0.3804 0.9248
vn -0.4583 0.3917 0.7978
vn 0.7483 0.1482 -0.6466
vn 0.6084 0.1121 -0.7857
vn 0.7997 0.0906 0.5935
vn 0.8627 0.2735 0.4253
vn 0.8142 0.5765 0.0691
vn 0.3704 0.9279 -0.0437
vn 0.1201 0.9904 -0.0679
vn -0.0000 0.9860 -0.1669
vn -0.1137 -0.8299 -0.5461
vn 0.0001 -0.7966 -0.6045
vn 0.5705 -0.6359 0.5198
vn 0.5766 -0.5496 -0.6045
vn 0.6882 -0.0461 -0.7240
vn 0.7144 -0.0472 0.6982
vn -0.6741 -0.0227 0.7383
vn -0.5696 -0.6296 0.5284
vn -0.5969 -0.5424 -0.5912
vn -0.7100 -0.0327 -0.7035
vn -0.0001 -0.9998 0.0190
vn -0.2965 0.7239 -0.6230
vn 0.0000 0.7239 -0.6900
vn 0.0000 -0.6001 -0.7999
vn -0.3238 -0.5778 -0.7492
vn -0.5490 0.7738 -0.3161
vn -0.7757 -0.4806 -0.4090
vn -0.8510 -0.5222 -0.0554
vn -0.6623 0.7410 -0.1110
vn -0.0000 0.9996 0.0297
vn 0.0693 0.9946 0.0776
vn -0.0426 -0.9967 -0.0688
vn 0.0000 -0.9975 -0.0706
vn 0.2263 0.9733 0.0384
vn -0.1723 -0.9836 -0.0527
vn 0.1965 0.9794 -0.0466
vn -0.1701 -0.9852 0.0202
vn -0.9775 -0.1933 0.0840
vn -0.8292 0.0305 -0.5581
vn -0.8302 -0.3191 -0.4572
vn -0.7707 -0.5276 -0.3572
vn -0.7410 0.3277 -0.5860
vn 0.4933 -0.8549 0.1608
vn 0.4956 -0.8017 -0.3343
vn 0.8278 -0.0931 -0.5532
vn 0.9944 -0.0468 -0.0944
vn 0.4067 -0.0425 -0.9126
vn 0.3985 0.3437 -0.8503
vn 0.8279 0.2598 -0.4971
vn 0.4322 -0.2598 0.8636
vn 0.5067 0.4178 0.7541
vn 0.7276 -0.2220 0.6490
vn 0.6366 -0.5552 0.5352
vn 0.9735 0.1074 0.2020
vn 0.9416 0.2378 0.2386
vn 0.1535 -0.7500 -0.6434
vn 0.9706 0.2399 -0.0180
vn 0.8547 0.1800 0.4869
vn 0.6330 -0.3989 0.6635
vn 0.4490 0.4858 0.7499
vn 0.8234 0.2984 0.4827
vn 0.7807 0.5412 0.3125
vn 0.7232 0.6894 0.0407
vn 0.3424 0.9325 0.1152
vn 0.4188 0.7126 0.5628
vn 0.3368 0.8784 -0.3390
vn 0.3695 0.6585 -0.6556
vn 0.7339 0.6368 -0.2365
vn 0.7960 0.4661 -0.3862
vn 0.9808 0.1862 -0.0585
vn 0.9284 0.3714 0.0096
vn 0.4023 0.9155 -0.0088
vn -0.1272 -0.9834 0.1294
vn -0.3251 -0.8354 0.4433
vn -0.4057 -0.8477 0.3418
vn -0.6362 -0.7145 0.2911
vn -0.4420 -0.8969 0.0148
vn -0.3576 -0.7893 0.4991
vn -0.2914 -0.8263 0.4820
vn -0.8514 -0.2672 0.4514
vn -0.7541 -0.6175 -0.2239
vn -0.9459 -0.3129 0.0862
vn -0.6950 -0.5987 0.3981
vn 0.5593 0.0655 0.8264
vn 0.1095 -0.7952 -0.5964
vn -0.2076 -0.7445 -0.6345
vn 0.9693 -0.2022 -0.1401
vn 0.6337 0.2836 0.7197
vn 0.7984 0.0998 -0.5938
vn 0.6608 -0.0326 0.7499
vn 0.4930 -0.5011 -0.7112
vn 0.6907 0.2759 0.6685
vn 0.5565 -0.3868 0.7353
vn 0.4585 0.3918 0.7977
vn -0.7483 0.1482 -0.6466
vn -0.8627 0.2735 0.4253
vn -0.7997 0.0906 0.5935
vn -0.6084 0.1121 -0.7857
vn -0.8142 0.5765 0.0691
vn -0.3704 0.9279 -0.0437
vn -0.1201 0.9904 -0.0681
vn 0.1137 -0.8299 -0.5463
vn -0.5705 -0.6359 0.5198
vn -0.7144 -0.0472 0.6982
vn -0.6882 -0.0461 -0.7240
vn -0.5766 -0.5496 -0.6045
vn 0.5696 -0.6296 0.5284
vn 0.6741 -0.0227 0.7383
vn 0.5969 -0.5424 -0.5912
vn 0.7100 -0.0327 -0.7035
vn 0.2965 0.7239 -0.6230
vn 0.3238 -0.5779 -0.7492
vn 0.5490 0.7738 -0.3161
vn 0.7757 -0.4806 -0.4090
vn 0.6623 0.7410 -0.1110
vn 0.8510 -0.5222 -0.0554
vn -0.0693 0.9946 0.0776
vn 0.0426 -0.9967 -0.0688
vn -0.2263 0.9733 0.0384
vn 0.1723 -0.9836 -0.0527
vn -0.1965 0.9794 -0.0466
vn 0.1701 -0.9852 0.0202
vn 0.9775 -0.1933 0.0840
vn 0.8292 0.0305 -0.5581
vn 0.7707 -0.5276 -0.3572
vn 0.8302 -0.3191 -0.4572
vn 0.7410 0.3277 -0.5860
# 194 vertex normals

vt 0.2918 0.8120 0.0000
vt 0.2884 0.8271 0.0000
vt 0.1995 0.8230 0.0000
vt 0.2009 0.8110 0.0000
vt 0.2190 0.9101 0.0000
vt 0.1859 0.9183 0.0000
vt 0.1693 0.8293 0.0000
vt 0.4132 0.8865 0.0000
vt 0.4129 0.8974 0.0000
vt 0.3867 0.8931 0.0000
vt 0.3930 0.8809 0.0000
vt 0.3486 0.8669 0.0000
vt 0.3351 0.8770 0.0000
vt 0.3006 0.8320 0.0000
vt 0.3082 0.8190 0.0000
vt 0.1685 0.8177 0.0000
vt 0.1396 0.8320 0.0000
vt 0.1385 0.8194 0.0000
vt 0.1555 0.9283 0.0000
vt 0.3169 0.9067 0.0000
vt 0.3697 0.8764 0.0000
vt 0.3628 0.8863 0.0000
vt 0.4129 0.9190 0.0000
vt 0.3865 0.9188 0.0000
vt 0.3593 0.9148 0.0000
vt 0.3531 0.9284 0.0000
vt 0.3836 0.9430 0.0000
vt 0.3301 0.9711 0.0000
vt 0.3172 0.9414 0.0000
vt 0.4119 0.9526 0.0000
vt 0.3379 0.9898 0.0000
vt 0.2186 0.9815 0.0000
vt 0.2291 0.9637 0.0000
vt 0.2015 0.9481 0.0000
vt 0.2300 0.9274 0.0000
vt 0.2467 0.9395 0.0000
vt 0.1831 0.9617 0.0000
vt 0.3298 0.8921 0.0000
vt 0.3166 0.9219 0.0000
vt 0.3352 0.9079 0.0000
vt 0.3940 0.8738 0.0000
vt 0.4116 0.8769 0.0000
vt 0.1390 0.8091 0.0000
vt 0.1674 0.8074 0.0000
vt 0.1980 0.8036 0.0000
vt 0.2929 0.8080 0.0000
vt 0.3733 0.8696 0.0000
vt 0.3127 0.8149 0.0000
vt 0.3536 0.8608 0.0000
vt 0.4874 0.9510 0.0000
vt 0.4812 0.9313 0.0000
vt 0.4970 0.9343 0.0000
vt 0.4997 0.9513 0.0000
vt 0.4324 0.9220 0.0000
vt 0.4502 0.9107 0.0000
vt 0.4528 0.9264 0.0000
vt 0.4313 0.9351 0.0000
vt 0.4796 0.9146 0.0000
vt 0.4665 0.9194 0.0000
vt 0.4548 0.9092 0.0000
vt 0.4752 0.9115 0.0000
vt 0.4711 0.9494 0.0000
vt 0.4667 0.9363 0.0000
vt 0.8224 0.2516 0.0000
vt 0.8377 0.2514 0.0000
vt 0.8355 0.2267 0.0000
vt 0.8214 0.2170 0.0000
vt 0.8095 0.2266 0.0000
vt 0.8266 0.3090 0.0000
vt 0.8392 0.3093 0.0000
vt 0.7854 0.1922 0.0000
vt 0.7814 0.2055 0.0000
vt 0.9166 0.9347 0.0000
vt 0.9494 0.9321 0.0000
vt 0.9494 0.9491 0.0000
vt 0.9171 0.9495 0.0000
vt 0.8885 0.2804 0.0000
vt 0.8853 0.2975 0.0000
vt 0.8898 0.2987 0.0000
vt 0.8938 0.2819 0.0000
vt 0.8994 0.2767 0.0000
vt 0.9113 0.2745 0.0000
vt 0.9099 0.2713 0.0000
vt 0.8958 0.2738 0.0000
vt 0.8073 0.2290 0.0000
vt 0.8198 0.2529 0.0000
vt 0.8226 0.3089 0.0000
vt 0.8426 0.3091 0.0000
vt 0.8425 0.2531 0.0000
vt 0.7793 0.2097 0.0000
vt 0.8934 0.9477 0.0000
vt 0.9211 0.9550 0.0000
vt 0.8987 0.9522 0.0000
vt 0.9494 0.9543 0.0000
vt 0.8832 0.9331 0.0000
vt 0.9065 0.9177 0.0000
vt 0.9154 0.2752 0.0000
vt 0.9138 0.2696 0.0000
vt 0.9494 0.9151 0.0000
vt 0.8737 0.2557 0.0000
vt 0.8732 0.2639 0.0000
vt 0.9088 0.2657 0.0000
vt 0.9093 0.2508 0.0000
vt 0.9785 0.1975 0.0000
vt 0.9929 0.2618 0.0000
vt 0.9883 0.2615 0.0000
vt 0.9782 0.2001 0.0000
vt 0.9670 0.2014 0.0000
vt 0.9642 0.2610 0.0000
vt 0.9595 0.2620 0.0000
vt 0.9659 0.1989 0.0000
vt 0.8903 0.2749 0.0000
vt 0.9172 0.2751 0.0000
vt 0.9187 0.2695 0.0000
vt 0.4255 0.9340 0.0000
vt 0.4986 0.9573 0.0000
vt 0.4513 0.9433 0.0000
vt 0.4922 0.0392 0.0000
vt 0.4922 0.0043 0.0000
vt 0.5105 0.0030 0.0000
vt 0.5105 0.0379 0.0000
vt 0.4922 0.0705 0.0000
vt 0.5105 0.0696 0.0000
vt 0.5105 0.1649 0.0000
vt 0.4922 0.1654 0.0000
vt 0.4890 0.0049 0.0000
vt 0.4890 0.0410 0.0000
vt 0.5142 0.0387 0.0000
vt 0.5142 0.0028 0.0000
vt 0.4891 0.0728 0.0000
vt 0.5142 0.0713 0.0000
vt 0.4893 0.1679 0.0000
vt 0.5141 0.1671 0.0000
vt 0.4068 0.7508 0.0000
vt 0.4214 0.7644 0.0000
vt 0.3725 0.7842 0.0000
vt 0.3379 0.8304 0.0000
vt 0.3194 0.8055 0.0000
vt 0.3410 0.8077 0.0000
vt 0.3535 0.8406 0.0000
vt 0.4874 0.9516 0.0000
vt 0.4997 0.9520 0.0000
vt 0.4970 0.9350 0.0000
vt 0.4812 0.9320 0.0000
vt 0.4324 0.9226 0.0000
vt 0.4313 0.9358 0.0000
vt 0.4528 0.9270 0.0000
vt 0.4502 0.9113 0.0000
vt 0.4796 0.9152 0.0000
vt 0.4665 0.9200 0.0000
vt 0.4752 0.9122 0.0000
vt 0.4548 0.9099 0.0000
vt 0.4711 0.9500 0.0000
vt 0.4667 0.9369 0.0000
vt 0.4255 0.9346 0.0000
vt 0.4986 0.9579 0.0000
vt 0.4513 0.9440 0.0000
# 157 texture coords

o soldier_Military_Male_Lod_1
g soldier_Military_Male_Lod_1
usemtl Casual_Male_Lod_0
s 1
f 1/1/1 2/2/2 3/3/3 4/4/4 
f 3/3/3 5/5/5 6/6/6 7/7/7 
f 8/8/8 9/9/9 10/10/10 11/11/11 
f 12/12/12 13/13/13 14/14/14 15/15/15 
f 4/4/4 3/3/3 7/7/7 16/16/16 
f 17/17/17 18/18/18 16/16/16 7/7/7 
f 7/7/7 6/6/6 19/19/19 17/17/17 
f 5/5/5 3/3/3 2/2/2 20/20/20 
f 13/13/13 12/12/12 21/21/21 22/22/22 
f 11/11/11 10/10/10 22/22/22 21/21/21 
f 23/23/23 24/24/24 10/10/10 9/9/9 
f 24/24/24 25/25/25 22/22/22 10/10/10 
f 26/26/26 27/27/27 28/28/28 29/29/29 
f 30/30/30 31/31/31 28/28/28 27/27/27 
f 24/24/24 23/23/23 30/30/30 27/27/27 
f 27/27/27 26/26/26 25/25/25 24/24/24 
f 31/31/31 32/32/32 33/33/33 28/28/28 
f 34/34/34 35/35/35 36/36/36 33/33/33 
f 37/37/37 34/34/34 33/33/33 32/32/32 
f 29/29/29 28/28/28 33/33/33 36/36/36 
f 6/6/6 5/5/5 35/35/35 34/34/34 
f 19/19/19 6/6/6 34/34/34 37/37/37 
f 13/13/13 38/38/38 20/20/20 2/2/2 14/14/14 
f 15/15/15 14/14/14 2/2/2 1/1/1 
f 29/29/29 36/36/36 35/35/35 39/39/39 
f 40/40/40 25/25/25 26/26/26 39/39/39 20/20/20 
f 20/20/20 39/39/39 35/35/35 5/5/5 
f 38/38/38 13/13/13 22/22/22 40/40/40 
f 29/29/29 39/39/39 26/26/26 
f 41/41/41 42/42/42 8/8/8 11/11/11 
f 43/43/43 44/44/44 16/16/16 18/18/18 
f 16/16/16 44/44/44 45/45/45 4/4/4 
f 4/4/4 45/45/45 46/46/46 1/1/1 
f 21/21/21 47/47/47 41/41/41 11/11/11 
f 46/46/46 48/48/48 15/15/15 1/1/1 
f 48/48/48 49/49/49 12/12/12 15/15/15 
f 49/49/49 47/47/47 21/21/21 12/12/12 
f 50/50/50 51/51/51 45/52/45 44/53/44 
f 41/54/41 47/55/47 52/56/52 53/57/53 
f 46/58/46 45/52/45 51/51/51 54/59/54 
f 46/58/46 54/59/54 49/60/49 48/61/48 
f 52/56/52 47/55/47 49/60/49 54/59/54 
f 55/62/55 56/63/56 51/51/51 50/50/50 
f 56/63/56 52/56/52 54/59/54 51/51/51 
f 57/64/57 58/65/58 59/66/59 60/67/60 
f 61/68/61 57/64/57 60/67/60 
f 58/65/58 57/64/57 62/69/62 63/70/63 
f 64/71/64 65/72/65 61/68/61 60/67/60 
f 66/73/66 67/74/67 68/75/68 69/76/69 
f 70/77/70 71/78/71 72/79/72 73/80/73 
f 74/81/74 75/82/75 64/83/64 60/84/60 
f 74/85/74 73/86/73 57/64/57 61/68/61 
f 73/86/73 72/87/72 62/69/62 57/64/57 
f 58/65/58 63/70/63 71/88/71 70/89/70 
f 61/68/61 65/72/65 75/90/75 74/85/74 
f 65/91/65 69/76/69 76/92/76 75/93/75 
f 77/94/77 76/92/76 69/76/69 68/75/68 
f 66/73/66 64/95/64 78/96/78 
f 64/83/64 75/82/75 76/97/76 78/98/78 
f 78/96/78 79/99/79 67/74/67 66/73/66 
f 69/76/69 65/91/65 64/95/64 66/73/66 
f 80/100/80 81/101/81 82/102/82 83/103/83 
f 80/104/80 83/105/83 84/106/84 85/107/85 
f 86/108/86 87/109/87 82/110/82 81/111/81 
f 81/111/81 80/104/80 85/107/85 86/108/86 
f 85/107/85 84/106/84 87/109/87 86/108/86 
f 60/84/60 73/80/73 74/81/74 
f 60/84/60 59/112/59 70/77/70 73/80/73 
f 77/113/77 79/114/79 78/98/78 76/97/76 
f 20/20/20 38/38/38 40/40/40 
f 40/40/40 22/22/22 25/25/25 
f 42/115/42 41/54/41 53/57/53 
f 44/53/44 43/116/43 50/50/50 
f 53/57/53 52/56/52 88/117/88 
f 56/63/56 55/62/55 88/117/88 
f 52/56/52 56/63/56 88/117/88 
f 89/118/89 90/119/90 91/120/91 92/121/92 
f 93/122/93 89/118/89 92/121/92 94/123/94 
f 94/123/94 95/124/95 96/125/96 93/122/93 
f 97/126/97 90/119/90 89/118/89 98/127/98 
f 99/128/99 92/121/92 91/120/91 100/129/100 
f 98/127/98 89/118/89 93/122/93 101/130/101 
f 102/131/102 94/123/94 92/121/92 99/128/99 
f 96/125/96 103/132/103 101/130/101 93/122/93 
f 94/123/94 102/131/102 104/133/104 95/124/95 
f 105/134/105 106/135/105 107/136/105 
f 108/137/106 109/138/107 110/139/108 
f 108/137/106 111/140/109 109/138/107 
f 112/1/110 113/4/111 114/3/112 115/2/113 
f 114/3/112 116/7/114 117/6/115 118/5/116 
f 8/8/8 119/11/117 120/10/118 9/9/9 
f 121/12/119 122/15/120 123/14/121 124/13/122 
f 113/4/111 125/16/123 116/7/114 114/3/112 
f 17/17/17 116/7/114 125/16/123 18/18/18 
f 116/7/114 17/17/17 19/19/19 117/6/115 
f 118/5/116 126/20/124 115/2/113 114/3/112 
f 124/13/122 127/22/125 128/21/126 121/12/119 
f 119/11/117 128/21/126 127/22/125 120/10/118 
f 23/23/23 9/9/9 120/10/118 129/24/127 
f 129/24/127 120/10/118 127/22/125 130/25/128 
f 131/26/129 132/29/130 133/28/131 134/27/132 
f 30/30/30 134/27/132 133/28/131 31/31/31 
f 129/24/127 134/27/132 30/30/30 23/23/23 
f 134/27/132 129/24/127 130/25/128 131/26/129 
f 31/31/31 133/28/131 135/33/133 32/32/32 
f 136/34/134 135/33/133 137/36/135 138/35/136 
f 37/37/37 32/32/32 135/33/133 136/34/134 
f 132/29/130 137/36/135 135/33/133 133/28/131 
f 117/6/115 136/34/134 138/35/136 118/5/116 
f 19/19/19 37/37/37 136/34/134 117/6/115 
f 124/13/122 123/14/121 115/2/113 126/20/124 139/38/137 
f 122/15/120 112/1/110 115/2/113 123/14/121 
f 132/29/130 140/39/138 138/35/136 137/36/135 
f 141/40/139 126/20/124 140/39/138 131/26/129 130/25/128 
f 126/20/124 118/5/116 138/35/136 140/39/138 
f 139/38/137 141/40/139 127/22/125 124/13/122 
f 132/29/130 131/26/129 140/39/138 
f 142/41/140 119/11/117 8/8/8 42/42/42 
f 43/43/43 18/18/18 125/16/123 143/44/141 
f 125/16/123 113/4/111 144/45/142 143/44/141 
f 113/4/111 112/1/110 145/46/143 144/45/142 
f 128/21/126 119/11/117 142/41/140 146/47/144 
f 145/46/143 112/1/110 122/15/120 147/48/145 
f 147/48/145 122/15/120 121/12/119 148/49/146 
f 148/49/146 121/12/119 128/21/126 146/47/144 
f 50/141/50 143/142/141 144/143/142 149/144/147 
f 142/145/140 53/146/53 150/147/148 146/148/144 
f 145/149/143 151/150/149 149/144/147 144/143/142 
f 145/149/143 147/151/145 148/152/146 151/150/149 
f 150/147/148 151/150/149 148/152/146 146/148/144 
f 55/153/55 50/141/50 149/144/147 152/154/150 
f 152/154/150 149/144/147 151/150/149 150/147/148 
f 153/64/151 154/67/152 155/66/153 156/65/154 
f 157/68/155 154/67/152 153/64/151 
f 156/65/154 158/70/156 159/69/157 153/64/151 
f 160/71/158 154/67/152 157/68/155 161/72/159 
f 162/73/160 163/76/161 68/75/68 67/74/67 
f 164/77/162 165/80/163 166/79/164 167/78/165 
f 168/81/166 154/84/152 160/83/158 169/82/167 
f 168/85/166 157/68/155 153/64/151 165/86/163 
f 165/86/163 153/64/151 159/69/157 166/87/164 
f 156/65/154 164/89/162 167/88/165 158/70/156 
f 157/68/155 168/85/166 169/90/167 161/72/159 
f 161/91/159 169/93/167 170/92/168 163/76/161 
f 77/94/77 68/75/68 163/76/161 170/92/168 
f 162/73/160 171/96/169 160/95/158 
f 160/83/158 171/98/169 170/97/168 169/82/167 
f 171/96/169 162/73/160 67/74/67 79/99/79 
f 163/76/161 162/73/160 160/95/158 161/91/159 
f 172/100/170 173/103/171 174/102/172 175/101/173 
f 172/104/170 176/107/174 177/106/175 173/105/171 
f 178/108/176 175/111/173 174/110/172 179/109/177 
f 175/111/173 178/108/176 176/107/174 172/104/170 
f 176/107/174 178/108/176 179/109/177 177/106/175 
f 154/84/152 168/81/166 165/80/163 
f 154/84/152 165/80/163 164/77/162 155/112/153 
f 77/113/77 170/97/168 171/98/169 79/114/79 
f 126/20/124 141/40/139 139/38/137 
f 141/40/139 130/25/128 127/22/125 
f 42/155/42 53/146/53 142/145/140 
f 143/142/141 50/141/50 43/156/43 
f 53/146/53 88/157/88 150/147/148 
f 152/154/150 88/157/88 55/153/55 
f 150/147/148 88/157/88 152/154/150 
f 180/118/178 181/121/179 91/120/91 90/119/90 
f 182/122/180 183/123/181 181/121/179 180/118/178 
f 183/123/181 182/122/180 184/125/182 185/124/183 
f 97/126/97 186/127/184 180/118/178 90/119/90 
f 187/128/185 100/129/100 91/120/91 181/121/179 
f 186/127/184 188/130/186 182/122/180 180/118/178 
f 189/131/187 187/128/185 181/121/179 183/123/181 
f 184/125/182 182/122/180 188/130/186 190/132/188 
f 183/123/181 185/124/183 191/133/189 189/131/187 
f 192/134/190 193/136/190 194/135/190 
f 195/137/191 196/139/192 197/138/193 
f 195/137/191 197/138/193 198/140/194 
# 148 polygons - 28 triangles

